<?xml version="1.0" encoding="utf-8"?>
<!-- Generator: Adobe Illustrator 19.2.0, SVG Export Plug-In . SVG Version: 6.00 Build 0)  -->
<svg version="1.1" id="Слой_1" xmlns="http://www.w3.org/2000/svg" xmlns:xlink="http://www.w3.org/1999/xlink" x="0px" y="0px"
	 viewBox="0 0 192.7 192.7" style="enable-background:new 0 0 192.7 192.7;" xml:space="preserve">
<style type="text/css">
	.st0{fill-rule:evenodd;clip-rule:evenodd;fill:#FFFFFF;}
	.st1{fill-rule:evenodd;clip-rule:evenodd;}
</style>
<g>
	<polygon class="st0" points="0,0 192.7,0 192.7,192.7 0,192.7 0,0 	"/>
	<path class="st1" d="M96.3,2.9C44.7,2.9,2.8,44.7,2.8,96.4c0,51.7,41.9,93.5,93.5,93.5c51.7,0,93.5-41.9,93.5-93.5
		C189.9,44.7,148,2.9,96.3,2.9L96.3,2.9L96.3,2.9L96.3,2.9z M96.3,181.6c-47,0-85.2-38.1-85.2-85.2c0-47,38.1-85.2,85.2-85.2
		c47,0,85.2,38.1,85.2,85.2C181.5,143.4,143.4,181.6,96.3,181.6L96.3,181.6L96.3,181.6L96.3,181.6z"/>
	<path class="st1" d="M77.7,32.8c5.9-1.7,12.2-2.7,18.6-2.7c6.5,0,12.7,0.9,18.6,2.7l0,0L96.3,74.1L77.7,32.8L77.7,32.8L77.7,32.8z"
		/>
	<path class="st1" d="M131.9,40.5c7,4.5,13.1,10.2,18,16.8l0,0L119.3,125l-11.8-26.2H85.2L73.4,125L42.8,57.3l0,0
		c4.9-6.6,10.9-12.3,17.9-16.8l0,0l24.4,54.1h22.4L131.9,40.5L131.9,40.5L131.9,40.5z"/>
	<path class="st1" d="M32.3,79.3c-1.5,5.5-2.2,11.2-2.2,17.2c0,26,14.9,48.5,36.7,59.3l0,0L32.3,79.3L32.3,79.3L32.3,79.3z"/>
	<path class="st1" d="M78,160.1c5.8,1.7,12,2.6,18.3,2.6c6.4,0,12.5-0.9,18.3-2.6l0,0l-18.3-40.7L78,160.1L78,160.1L78,160.1z"/>
	<path class="st1" d="M125.9,155.7c21.8-10.9,36.7-33.4,36.7-59.3c0-5.9-0.8-11.6-2.2-17l0,0L125.9,155.7L125.9,155.7L125.9,155.7z"
		/>
</g>
</svg>
